<?xml version="1.0" encoding="UTF-8" standalone="no"?>
<svg
   id="Camada_1"
   data-name="Camada 1"
   viewBox="0 0 414.17 340.6"
   version="1.1"
   sodipodi:docname="logoB.svg"
   inkscape:version="1.1.1 (3bf5ae0d25, 2021-09-20, custom)"
   xmlns:inkscape="http://www.inkscape.org/namespaces/inkscape"
   xmlns:sodipodi="http://sodipodi.sourceforge.net/DTD/sodipodi-0.dtd"
   xmlns="http://www.w3.org/2000/svg"
   xmlns:svg="http://www.w3.org/2000/svg"
   xmlns:rdf="http://www.w3.org/1999/02/22-rdf-syntax-ns#"
   xmlns:cc="http://creativecommons.org/ns#"
   xmlns:dc="http://purl.org/dc/elements/1.1/">
  <sodipodi:namedview
     id="namedview47"
     pagecolor="#505050"
     bordercolor="#eeeeee"
     borderopacity="1"
     inkscape:pageshadow="0"
     inkscape:pageopacity="0"
     inkscape:pagecheckerboard="0"
     showgrid="false"
     inkscape:zoom="0.8073987"
     inkscape:cx="321.40255"
     inkscape:cy="180.82764"
     inkscape:window-width="1366"
     inkscape:window-height="740"
     inkscape:window-x="0"
     inkscape:window-y="28"
     inkscape:window-maximized="1"
     inkscape:current-layer="Camada_1" />
  <defs
     id="defs4">
    <style
       id="style2">.cls-1,.cls-2{fill:#001d7e;}.cls-2{font-size:37.83px;font-family:ArialMT, Arial;}.cls-3{letter-spacing:-0.06em;}.cls-4{letter-spacing:0em;}.cls-5{letter-spacing:-0.06em;}.cls-6{letter-spacing:-0.04em;}.cls-7{letter-spacing:0em;}.cls-8{letter-spacing:-0.02em;}.cls-9{fill:none;}</style>
  </defs>
  <title
     id="title6">original</title>
  <path
     style="opacity:0.93;fill:#ffffff;stroke-width:4.33491;stroke-linecap:round"
     d="m 1.9885926,126.13017 c -0.00788,-8.18385 0.3340888,-0.48768 6.9174909,-2.52919 8.2565265,-2.56035 18.3282565,-4.52963 29.9823695,0.4904 l 9.775849,4.21096 -12.62161,0.62584 c -7.686251,0.38112 -9.450591,-0.59014 -13.551689,0.75562 -6.080036,1.99514 -12.9954575,4.92609 -17.1425373,8.88156 l -3.3441632,3.88698 z"
     id="path1046"
     sodipodi:nodetypes="ssscssscs" />
  <path
     style="opacity:0.93;fill:#ffffff;stroke-width:4.33491;stroke-linecap:round"
     d="m 126.37413,179.61172 c -5.55132,-5.09376 -20.36219,-15.53068 -28.080449,-21.27773 -13.520337,-10.06733 -35.043296,-21.9526 -47.990264,-28.53583 -8.221656,-4.18052 4.568927,-2.52866 16.848579,1.52571 17.700031,5.84402 41.116514,15.18846 57.966474,31.48148 l 6.01584,5.81699 0.17447,7.21175 c 0.096,3.96647 0.11186,8.4639 -0.15447,8.44825 -0.26627,-0.0156 -2.73658,-2.79547 -4.78018,-4.67062 z"
     id="path1085"
     sodipodi:nodetypes="ssssscccs" />
  <path
     style="opacity:0.93;fill:#ffffff;stroke:none;stroke-width:4.33491;stroke-linecap:round;stroke-opacity:1"
     d="m 137.83068,231.3447 c 0,-33.06119 -0.59066,-42.23251 0.0256,-41.85666 0.42575,0.25965 4.58797,3.54463 8.33457,6.32102 33.49599,24.822 66.47276,41.35373 93.81982,47.03323 9.25046,1.92116 23.1618,2.67131 30.69545,1.65522 4.26169,-0.5748 11.55507,-3.62888 15.4109,-5.24461 1.01634,-0.42588 0.95838,1.69013 0.95838,17.14264 v 16.47699 h -74.62237 -74.62236 z"
     id="path1982"
     sodipodi:nodetypes="ssssssscccs" />
  <path
     style="opacity:0.93;fill:#ffffff;stroke-width:4.33491;stroke-linecap:round"
     d="m 295.74522,232.08037 -0.17091,-4.86803 4.02768,-0.90426 c 7.164,-1.6084 10.57771,-3.18792 17.64406,-6.72112 4.24812,-2.12407 13.72929,-8.00007 13.84073,-7.88862 0.39587,0.39587 -12.52299,11.86402 -18.3161,15.7323 -3.2357,2.1606 -8.81043,5.3299 -11.52121,6.62188 l -5.67516,2.70483 z"
     id="path1163"
     sodipodi:nodetypes="ccssssscc" />
  <path
     style="opacity:0.93;fill:#ffffff;stroke-width:4.33491;stroke-linecap:round"
     d="m 332.19991,210.69784 c 0,-0.20323 6.95441,-7.29989 9.04118,-9.56601 4.95081,-5.37631 17.5927,-22.49037 19.97805,-26.54079 l 3.61517,-6.1387 0.15249,7.22885 -0.0525,7.15115 -6.90425,6.95521 c -5.71121,5.75335 -18.90474,16.65624 -19.75438,16.65624 -0.1589,0 -6.07577,4.45728 -6.07577,4.25405 z"
     id="path1124"
     sodipodi:nodetypes="ssscccsss" />
  <path
     class="cls-1"
     d="m 247.17431,201.74234 -0.37,-61.83 -52.74,-0.37 -0.73,-68.379995 h -62.2 V 279.22234 h 164.44 v -77.11 z m 40,71.3 h -149.49 V 79.162345 h 48 l 0.37,68.379995 h 53.83 l -0.73,62.57 48,-0.36 z"
     id="path8" />
  <path
     class="cls-1"
     d="M 131.13431,71.210663 H 2.0043015 V 127.1829 c 0,0 13.0000005,-11.82414 46.6600005,1.11944 39.44,6.16695 82.470008,40.32 82.470008,40.32 z"
     id="path10"
     style="stroke-width:0.999752" />
  <path
     class="cls-1"
     d="m 137.68431,173.01234 c 0,0 97.12,71.29 149.5,55.65 v 10.55 c 0,0 -45.11,30.55 -149.5,-50.2 z"
     id="path12" />
  <path
     class="cls-1"
     d="m 295.57431,279.39247 h 69.84 l -0.48,-96.56013 v 0 a 206.7,207.06483 0 0 1 -33.27,28.38 c -10.12,9.85737 -22.26999,19.27397 -36.09,25.54501 z"
     id="path14"
     style="stroke-width:1.00088" />
  <path
     class="cls-1"
     d="m 48.664302,128.30234 c -17.67,-2.77 -34.62,0.09 -46.6599995,14.15 v 136.77 H 64.004302 v -77.6 h 67.150008 v -17.34 c -35.720008,-32.19 -62.680008,-48.37 -82.490008,-55.98 z"
     id="path40" />
  <line
     class="cls-9"
     x1="246.8143"
     y1="139.91235"
     x2="246.8143"
     id="line42"
     y2="60.152344" />
  <path
     class="cls-1"
     d="m 246.80431,71.162345 v 0 68.749995 h 48.77 v 87.3 c 0,0 14,-1.24 36.09,-16 a 204.35,204.35 0 0 0 33.17,-42.76 l -0.14,-28.5 h 48 V 71.162345 Z"
     id="path44" />
  <path
     style="opacity:0.93;fill:#ffffff;stroke:none;stroke-width:4.33491;stroke-linecap:round;stroke-opacity:1"
     d="m 260.75631,230.0837 c -28.45646,-3.46462 -68.83995,-21.36319 -110.695,-49.06171 l -12.23063,-8.0939 V 126.29377 79.659436 h 23.842 23.842 v 34.060004 34.06 h 27.03907 27.03906 l -0.39233,31.27327 -0.39233,31.27327 h 24.15018 24.15019 l -0.17138,9.12051 -0.17137,9.1205 -3.406,0.77904 c -4.69882,1.07474 -16.63533,1.4643 -22.60346,0.73767 z"
     id="path2021" />
  <metadata
     id="metadata2325">
    <rdf:RDF>
      <cc:Work
         rdf:about="">
        <dc:title>original</dc:title>
      </cc:Work>
    </rdf:RDF>
  </metadata>
</svg>
