<?xml version="1.0" encoding="UTF-8" standalone="no"?>
<svg
   id="Camada_1"
   data-name="Camada 1"
   viewBox="0 0 414.17 340.6"
   version="1.1"
   sodipodi:docname="logo.svg"
   inkscape:version="1.1.1 (3bf5ae0d25, 2021-09-20, custom)"
   xmlns:inkscape="http://www.inkscape.org/namespaces/inkscape"
   xmlns:sodipodi="http://sodipodi.sourceforge.net/DTD/sodipodi-0.dtd"
   xmlns="http://www.w3.org/2000/svg"
   xmlns:svg="http://www.w3.org/2000/svg"
   xmlns:rdf="http://www.w3.org/1999/02/22-rdf-syntax-ns#"
   xmlns:cc="http://creativecommons.org/ns#"
   xmlns:dc="http://purl.org/dc/elements/1.1/">
  <sodipodi:namedview
     id="namedview47"
     pagecolor="#505050"
     bordercolor="#eeeeee"
     borderopacity="1"
     inkscape:pageshadow="0"
     inkscape:pageopacity="0"
     inkscape:pagecheckerboard="0"
     showgrid="false"
     inkscape:zoom="0.75785828"
     inkscape:cx="279.73568"
     inkscape:cy="124.03374"
     inkscape:window-width="1366"
     inkscape:window-height="740"
     inkscape:window-x="0"
     inkscape:window-y="28"
     inkscape:window-maximized="1"
     inkscape:current-layer="Camada_1" />
  <defs
     id="defs4">
    <style
       id="style2">.cls-1,.cls-2{fill:#001d7e;}.cls-2{font-size:37.83px;font-family:ArialMT, Arial;}.cls-3{letter-spacing:-0.06em;}.cls-4{letter-spacing:0em;}.cls-5{letter-spacing:-0.06em;}.cls-6{letter-spacing:-0.04em;}.cls-7{letter-spacing:0em;}.cls-8{letter-spacing:-0.02em;}.cls-9{fill:none;}</style>
  </defs>
  <title
     id="title6">original</title>
  <rect
     style="opacity:0.93;fill:#ffffff;stroke:none;stroke-width:7;stroke-linecap:round;stroke-opacity:1"
     id="rect4195"
     width="129.14999"
     height="130.46001"
     x="3.51"
     y="11.01" />
  <rect
     style="opacity:0.93;fill:#ffffff;stroke:none;stroke-width:7;stroke-linecap:round;stroke-opacity:1"
     id="rect4008"
     width="69.839996"
     height="139.31"
     x="297.07999"
     y="79.760002" />
  <path
     class="cls-1"
     d="M291.6,221.29l-.37-61.83-52.74-.37-.73-68.38h-62.2V298.77H340V221.66Zm40,71.3H182.11V98.71h48l.37,68.38h53.83l-.73,62.57,48-.36Z"
     transform="translate(-42.92 -79.7)"
     id="path8" />
  <path
     class="cls-1"
     d="M175.56,90.71H46.43v56s13-11.83,46.66,1.12c39.44,6.17,82.47,40.34,82.47,40.34Z"
     transform="translate(-42.92 -79.7)"
     id="path10" />
  <path
     class="cls-1"
     d="M182.11,192.56s97.12,71.29,149.5,55.65v10.55s-45.11,30.55-149.5-50.2Z"
     transform="translate(-42.92 -79.7)"
     id="path12" />
  <path
     class="cls-1"
     d="m 297.08,219.07 h 70.30549 l -0.4832,-96.24079 v 0 a 208.07767,206.38003 0 0 1 -33.49175,28.28614 c -10.18745,9.82477 -22.41843,19.21022 -36.33054,25.46053 z"
     id="path14"
     style="stroke-width:1.00255" />
  <text
     class="cls-2"
     transform="translate(0 282.93)"
     id="text38">E N G E N H<tspan
   class="cls-3"
   x="214.4"
   y="0"
   xml:space="preserve"
   id="tspan16"> A</tspan><tspan
   class="cls-4"
   x="245.97"
   y="0"
   xml:space="preserve"
   id="tspan18"> R I</tspan><tspan
   class="cls-5"
   x="304.82"
   y="0"
   xml:space="preserve"
   id="tspan20"> A</tspan><tspan
   x="0"
   y="45.4"
   id="tspan22">E </tspan><tspan
   class="cls-6"
   x="35.74"
   y="45.4"
   id="tspan24">L</tspan><tspan
   class="cls-7"
   x="55.38"
   y="45.4"
   xml:space="preserve"
   id="tspan26"> É</tspan><tspan
   class="cls-8"
   x="91.12"
   y="45.4"
   xml:space="preserve"
   id="tspan28"> T</tspan><tspan
   x="123.37"
   y="45.4"
   xml:space="preserve"
   id="tspan30"> R I C</tspan><tspan
   class="cls-5"
   x="220.05"
   y="45.4"
   xml:space="preserve"
   id="tspan32"> A</tspan><tspan
   x="251.62"
   y="45.4"
   xml:space="preserve"
   id="tspan34"> - U F B</tspan><tspan
   class="cls-5"
   x="381.92"
   y="45.4"
   xml:space="preserve"
   id="tspan36"> A</tspan></text>
  <path
     class="cls-1"
     d="M93.09,147.85c-17.67-2.77-34.62.09-46.66,14.15V298.77h62v-77.6h67.15V203.83C139.86,171.64,112.9,155.46,93.09,147.85Z"
     transform="translate(-42.92 -79.7)"
     id="path40" />
  <line
     class="cls-9"
     x1="248.32"
     y1="79.76"
     x2="248.32"
     id="line42" />
  <path
     class="cls-1"
     d="m 247.74143,10.93847 v 0 68.812283 h 49.23501 v 87.379087 c 0,0 14.13348,-1.24112 36.4341,-16.01449 a 206.2984,204.53513 0 0 0 33.48627,-42.79874 l -0.14134,-28.525821 h 48.45766 V 10.93847 Z"
     id="path44"
     style="stroke-width:1.00521" />
  <path
     style="opacity:0.93;fill:#ffffff;stroke:none;stroke-width:4.33491;stroke-linecap:round;stroke-opacity:1"
     d="m 139.33637,171.19236 c 0,-33.06119 0.15782,-41.43157 0.77409,-41.05572 0.42575,0.25965 3.83949,2.74369 7.58609,5.52008 33.49599,24.822 66.47276,41.35373 93.81982,47.03323 9.25046,1.92116 23.1618,2.67131 30.69545,1.65522 4.26169,-0.5748 11.42972,-2.5091 15.28555,-4.12483 1.01634,-0.42588 1.08373,0.57035 1.08373,16.02286 v 16.47699 h -74.62237 -74.62236 z"
     id="path1982" />
  <path
     style="opacity:0.93;fill:#ffffff;stroke:none;stroke-width:4.33491;stroke-linecap:round;stroke-opacity:1"
     d="m 262.262,169.93136 c -28.45646,-3.46462 -68.83995,-21.36319 -110.695,-49.06171 l -12.23063,-8.0939 V 66.141422 19.507091 h 23.842 23.842 v 34.060001 34.06 h 27.03907 27.03906 l -0.39233,31.273278 -0.39233,31.27327 h 24.15018 24.15019 l -0.17138,9.12051 -0.17137,9.1205 -3.406,0.77904 c -4.69882,1.07474 -16.63533,1.4643 -22.60346,0.73767 z"
     id="path2021" />
  <metadata
     id="metadata2325">
    <rdf:RDF>
      <cc:Work
         rdf:about="">
        <dc:title>original</dc:title>
      </cc:Work>
    </rdf:RDF>
  </metadata>
</svg>
